# xmcd
#
# Track frame offsets: 
#        150
#        14149
#        27390
#        39773
#        50683
#        64748
#        77703
#        90703
#        100448
#        112335
#        123197
#        135582
#        149595
#        162860
#        175528
#        187783
#        199426
#        210119
#        222774
#        236824
#        249370
#        263210
#        275615
#        286597
#        296189
#
# Disc length: 4099 seconds
#
# Revision: 0
# Processed by: cddbd v1.5.2PL0 Copyright (c) Steve Scherf et al.
# Submitted via: ExactAudioCopyFreeDBPlugin 1.0
#
DISCID=75100119
DTITLE=Various Artist - The Roots Of The Rolling Stones CD2
DYEAR=2016
DGENRE=Blues
TTITLE0=Nat King Cole Trio - Route 66
TTITLE1=Muddy Waters - I Just Want To Make Love To You
TTITLE2=Jimmy Reed - Honest I Do
TTITLE3=Bo Diddley - Mona (I Need You Baby)
TTITLE4=Slim Harpo - I'm A King Bee
TTITLE5=Chuck Berry - Carol
TTITLE6=Marvin Gaye - Can I Get A Witness
TTITLE7=Gene Allison - You Can Make It If You Try
TTITLE8=Rufus Thomas - Walking The Dog
TTITLE9=Buddy Holly - Not Fade Away
TTITLE10=Chuck Berry - Around And Around
TTITLE11=Little Walter - Confessin' The Blues
TTITLE12=Irma Thomas - Time Is On My Side
TTITLE13=Bobby Womack - It's All Over Now
TTITLE14=The Drifters - Under The Boardwalk
TTITLE15=Solomon Burke - If You Need Me
TTITLE16=Dale Hawkins - Susie Q
TTITLE17=Solomon Burke - Everybody Needs Somebody To Love
TTITLE18=Alvin Robinson - Down Home Girl
TTITLE19=Chuck Berry - You Can't Catch Me
TTITLE20=Amos Milburn - Down The Road Apiece
TTITLE21=Muddy Waters - I Can't Be Satisfied
TTITLE22=Otis Reddings - Pain In My Heart
TTITLE23=Chuck Berry - You Can't Catch Me
TTITLE24=Barbara Lynn - Oh Baby(We Got A Good Thing Goin')
EXTD=
EXTT0=
EXTT1=
EXTT2=
EXTT3=
EXTT4=
EXTT5=
EXTT6=
EXTT7=
EXTT8=
EXTT9=
EXTT10=
EXTT11=
EXTT12=
EXTT13=
EXTT14=
EXTT15=
EXTT16=
EXTT17=
EXTT18=
EXTT19=
EXTT20=
EXTT21=
EXTT22=
EXTT23=
EXTT24=
PLAYORDER=
